<?xml version="1.0" encoding="UTF-8" standalone="no"?>
<!DOCTYPE svg PUBLIC "-//W3C//DTD SVG 1.1//EN" "http://www.w3.org/Graphics/SVG/1.1/DTD/svg11.dtd">
<svg width="500" height="475" viewBox="0 0 2084 1980" version="1.1" xmlns="http://www.w3.org/2000/svg" xmlns:xlink="http://www.w3.org/1999/xlink" xml:space="preserve" xmlns:serif="http://www.serif.com/" style="fill-rule:evenodd;clip-rule:evenodd;stroke-linejoin:round;stroke-miterlimit:2;">
    <g transform="matrix(4.16667,0,0,4.16667,0,-50)">
        <g transform="matrix(1,0,0,1,-146,-56)">
            <g transform="matrix(4.15795,0,0,4.15074,-1222.09,-731.241)">
                <path d="M449.282,298.88L443,296L427,290L420,292L411,291L385,294L374,292L366,294L357,297L347,301L338,305L329.03,306.991L346.543,296.678L359,288L374.766,281.293L384.012,276.5L393.932,271.57C393.932,271.57 406.146,268.363 414.377,271.88C422.607,275.398 427.305,281.078 434.52,282.857C441.734,284.637 438.299,288.613 444.516,291.768C447.23,293.145 449.282,298.88 449.282,298.88Z" style="fill:#708090"/>
            </g>
        </g>
        <g transform="matrix(1,0,0,1,-146,-56)">
            <g transform="matrix(1,0,0,1,146,56)">
                <path d="M224.827,151.398C223.733,145.508 240.64,91.655 255.214,80.215C259.168,77.111 245.547,69.789 245.192,63.662C244.837,57.534 253.508,47.059 253.508,47.059C253.508,47.059 256.867,30.612 262.322,26.495C267.776,22.378 286.234,22.358 286.234,22.358C286.234,22.358 292.08,11.301 305.382,12.035C319.215,12.798 339.485,36.713 341.048,48.457C341.902,54.872 340.478,63.057 340.478,63.057C340.478,63.057 376.96,90.218 381.532,135.721C383.661,156.909 361.615,154.978 361.615,154.978C361.615,154.978 367.971,158.531 369.201,161.667C370.456,164.867 369.144,174.176 369.144,174.176L357.457,179.882C357.457,179.882 357.57,192.146 361.555,194.672C375.492,203.506 392.344,241.952 391.409,251.722C390,266.44 383.586,346.817 383.586,346.817C383.586,346.817 397.015,342.517 401.686,348.987C406.42,355.544 400.361,362.935 397.171,366.805C393.98,370.676 382.544,372.212 382.544,372.212C382.544,372.212 378.507,378.04 375.35,378.979C371.267,380.195 361.938,381.863 358.047,379.503C354.155,377.143 353.505,367.774 353.299,362.515C353.093,357.256 353.299,345.912 353.299,345.912C353.299,345.912 356.657,310.278 357.457,296.103C358.086,284.966 361.615,262.897 361.615,262.897C361.615,262.897 343.966,237.993 336.667,237.993C329.368,237.993 322.036,256.073 320.035,267.048C316.078,288.754 315.878,370.816 315.878,370.816C315.878,370.816 323.561,371.417 324.193,379.118C324.646,384.634 318.796,390.72 317.217,398.333C316.221,403.13 312.763,412.806 307.7,414.167C302.496,415.565 295.64,415.655 291.392,411.723C287.143,407.791 286.772,391.57 286.772,391.57C286.772,391.57 278.456,387.182 278.456,383.269C278.456,367.358 287.062,314.546 286.772,287.802C286.505,263.142 279.419,238.116 276.717,222.805C275.991,218.693 268.012,213.784 268.012,213.784C268.012,213.784 258.749,213.123 256.424,209.764C249.227,199.367 228.482,171.085 224.827,151.398ZM262.314,174.709C259.917,176.674 257.621,172.109 257.621,172.109L254.124,162.406L254.091,153.798L258.263,141.088L259.138,154.389L262.499,161.689L263.633,168.005C263.633,168.005 264.712,172.745 262.314,174.709Z" style="fill:#989898"/>
            </g>
        </g>
    </g>
</svg>
